# xmcd CD database file
#
# Track frame offsets:
#	182
#	16832
#	33595
#	53672
#	72512
#	94385
#	110595
#	126062
#	143142
#	164970
#
# Disc length: 2499 seconds
#
# Revision: 3
# Processed by: cddbd v1.4PL0 Copyright (c) Steve Scherf et al.
# Submitted via: CDex 1.40Beta9
#
DISCID=9109c10a
DTITLE=Joan Armatrading - To The Limit
DYEAR=1900
DGENRE=Blues
TTITLE0=Barefoot and Pregnant
TTITLE1=Your Letter
TTITLE2=Am I Blue For You
TTITLE3=You Rope You Tie Me
TTITLE4=Baby I
TTITLE5=Bottom To the Top
TTITLE6=Taking My Baby Up Town
TTITLE7=What Do You Want
TTITLE8=Wishing
TTITLE9=Let it Last
EXTD=ID3G: 0
EXTT0=
EXTT1=
EXTT2=
EXTT3=
EXTT4=
EXTT5=
EXTT6=
EXTT7=
EXTT8=
EXTT9=
PLAYORDER=
